<?xml version="1.0" standalone="no"?>
<!DOCTYPE svg PUBLIC "-//W3C//DTD SVG 20010904//EN"
 "http://www.w3.org/TR/2001/REC-SVG-20010904/DTD/svg10.dtd">
<svg version="1.0" xmlns="http://www.w3.org/2000/svg"
 width="1280.000000pt" height="1037.000000pt" viewBox="0 0 1280.000000 1037.000000"
 preserveAspectRatio="xMidYMid meet">
<g transform="translate(0.000000,1037.000000) scale(0.100000,-0.100000)"
fill="#000000" stroke="none">
<path d="M3660 8733 c0 -5 21 -39 48 -75 26 -37 80 -116 121 -175 55 -81 112
-144 224 -253 82 -80 265 -262 405 -405 141 -143 422 -427 626 -632 204 -204
372 -376 374 -381 5 -17 -10 -21 -154 -43 -253 -39 -214 -46 -409 73 -93 57
-246 153 -340 214 -756 492 -705 461 -1062 648 -292 153 -455 227 -618 279
-162 51 -169 52 -195 25 -54 -58 -200 -351 -200 -403 0 -49 202 -193 490 -347
149 -80 569 -278 745 -350 363 -150 315 -144 -268 31 -618 187 -674 205 -728
235 -74 42 -244 114 -348 147 -181 58 -319 88 -537 118 -283 38 -304 41 -304
31 0 -4 33 -25 73 -45 39 -21 124 -69 188 -106 264 -156 487 -247 794 -323 77
-20 257 -79 400 -132 143 -52 420 -152 615 -220 458 -162 451 -159 452 -169 1
-13 -3 -15 -242 -109 -847 -333 -1587 -815 -1997 -1301 -184 -218 -359 -522
-436 -755 -118 -356 -122 -704 -12 -995 85 -227 306 -542 488 -696 300 -254
730 -408 1277 -458 166 -16 568 -13 764 4 854 75 1800 357 2539 756 740 400
1145 763 1198 1076 25 142 -39 335 -142 427 -101 91 -254 113 -537 76 -239
-31 -317 -16 -402 76 -49 53 -51 83 -12 145 80 123 252 238 497 329 167 63
138 71 310 -92 289 -273 1589 -1494 1661 -1560 81 -74 120 -98 159 -98 36 0
42 26 16 74 -12 23 -345 373 -776 815 -415 426 -755 778 -755 783 0 4 4 8 10
8 5 0 224 -102 487 -226 263 -124 684 -322 935 -440 252 -118 611 -286 797
-374 187 -88 361 -164 387 -170 122 -28 190 69 110 158 -40 44 35 1 -996 572
-448 248 -822 458 -830 466 -12 12 -12 14 5 14 11 0 130 -34 265 -76 135 -41
621 -190 1080 -330 459 -141 988 -303 1175 -360 402 -124 496 -139 525 -84 19
36 -15 80 -94 121 -22 12 -215 83 -430 159 -215 76 -709 251 -1098 389 -389
138 -941 334 -1228 435 -286 101 -523 186 -527 189 -3 4 11 25 31 48 150 165
177 374 83 631 -154 423 -711 664 -1682 728 -178 12 -603 12 -765 1 -91 -7
-120 -6 -137 5 -13 8 -127 112 -255 232 -129 119 -359 334 -513 477 -509 473
-628 587 -671 645 -108 146 -283 307 -478 439 -144 97 -176 116 -176 104z
m3410 -2637 c93 -17 173 -47 234 -88 69 -45 75 -65 42 -132 -27 -54 -85 -116
-110 -116 -32 0 -466 154 -535 190 -85 44 -137 90 -128 113 4 10 33 19 79 27
40 6 80 13 88 15 45 8 265 2 330 -9z m-793 -423 c95 -49 115 -69 58 -59 -71
14 -195 84 -195 112 0 16 7 14 137 -53z"/>
</g>
</svg>
