<svg id="Layer_1" data-name="Layer 1" xmlns="http://www.w3.org/2000/svg" viewBox="0 0 500 500"><defs><style>.cls-1{fill:#231f20;}.cls-2{fill:#fff;}</style></defs><title>cm</title><circle class="cls-1" cx="249.68" cy="252.14" r="237.11"/><path class="cls-2" d="M157.56,287.6c-11.91.23-25.83.31-42.07-5.81-26.61-10.49-50.42-38.61-43.63-86.38,6.38-44.84,40-96.69,113.1-103.7l-4.9,35c-45.41,6.84-55.54,45.84-58.66,68-6.06,43,17.09,57.38,41.15,57.18Zm64.2-135c-.52-8.7-5.35-25.85-33.84-26.43l4.89-35c20-.47,32.21,2.72,39.08,5.2,33.71,12.67,36.25,40.29,37.22,50Zm41.18,61.68c-3,8.92-10.38,31.35-33.4,49.21-22.73,17.83-47,21.21-64.09,23.62l5-35.77c31.48-5.69,41.29-24.3,44.16-36.65Z"/><path class="cls-2" d="M194.39,406.19l26.8-191,42.2-1.81L237.54,401.78ZM259.62,301l12.3-91.18,13.27,3.85c4.27,28,8.58,55.81,13.45,83.82,4.82,28.53,6.58,37.59,12,56.95,7.1-20.29,12.26-30.6,25.58-62.66,11.28-27.71,22.55-55.41,34.1-83.13l16.32-1-12.53,84.61-45,105.77L276.73,401Zm108.16,94.64L394,202.94l40.4-.58L412.29,392.92Z"/></svg>