<svg id="Layer_1" data-name="Layer 1" xmlns="http://www.w3.org/2000/svg" viewBox="0 0 500 500"><defs><style>.cls-1{fill:none;stroke:#000;stroke-miterlimit:10;}.cls-2{fill:#231f20;}</style></defs><title>cm</title><rect class="cls-1" x="-12.19" y="-8.79" width="516.62" height="514.58"/><path class="cls-2" d="M130.56,311c-14.67.27-31.83.37-51.83-7.17C45.93,290.9,16.59,256.24,25,197.37,32.82,142.12,74.27,78.22,164.34,69.58l-6,43.08c-56,8.43-68.44,56.49-72.29,83.79-7.47,53,21.07,70.71,50.71,70.46Zm79.13-166.37c-.64-10.72-6.6-31.86-41.71-32.57L174,69c24.6-.58,39.68,3.36,48.14,6.41C263.72,91,266.84,125,268,137Zm50.75,76c-3.65,11-12.8,38.63-41.16,60.63-28,22-57.87,26.15-79,29.11l6.14-44.07c38.79-7,50.88-29.94,54.42-45.16Z"/><path class="cls-2" d="M176,457.13l33-235.41,52-2.23-31.85,232.2Zm80.39-129.62L271.5,215.14l16.36,4.74c5.25,34.56,10.57,68.79,16.57,103.3,5.94,35.17,8.11,46.32,14.76,70.19,8.75-25,15.11-37.71,31.53-77.23,13.9-34.14,27.79-68.27,42-102.44l20.11-1.18L397.41,316.78,342,447.13l-64.55,3.61ZM389.63,444.13l32.25-237.47,49.79-.73L444.48,440.77Z"/></svg>