<?xml version="1.0" encoding="UTF-8"?>
<svg width="1088px" height="417px" viewBox="0 0 1088 417" version="1.1" xmlns="http://www.w3.org/2000/svg" xmlns:xlink="http://www.w3.org/1999/xlink">
    <!-- Generator: Sketch 55 (78076) - https://sketchapp.com -->
    <title>Group</title>
    <desc>Created with Sketch.</desc>
    <g id="Page-1" stroke="none" stroke-width="1" fill="none" fill-rule="evenodd">
        <g id="cruzatmedia_logotype-(1)" transform="translate(-159.000000, -829.000000)" fill="#000000" fill-rule="nonzero">
            <g id="Group" transform="translate(159.000000, 829.000000)">
                <path d="M100.4,244 C89.2,244.2 76.2,244.3 62.2,238.6 C39.4,228.8 22.6,202.5 38.2,157.9 C52.9,116 94.4,67.5 164.1,61 L152.7,93.7 C108.9,100.1 91.9,136.5 84.6,157.2 C70.6,197.4 89.4,210.8 112,210.6 L100.4,244 Z M186.7,117.9 C187.9,109.8 186.7,93.7 160.2,93.2 L171.6,60.5 C190.4,60.1 201.2,63 207.1,65.4 C236.2,77.2 233.2,103.1 232.2,112.1 L186.7,117.9 Z M213.2,175.5 C208.7,183.8 197.4,204.8 172.4,221.5 C147.7,238.2 124.4,241.3 107.9,243.6 L119.5,210.2 C150,204.9 162.8,187.5 167.9,176 L213.2,175.5 Z" id="Shape"></path>
                <path d="M202.9,233.8 L264.3,56.7 L308.1,54 L246.9,231.1 L202.9,233.8 Z M277.2,163.8 L288.2,131.9 L308.4,130.6 C323.6,129.7 348.2,127.9 356.7,103.4 C364.3,81.5 342.8,83.3 328.8,84.2 L304.3,85.7 L315.8,52.5 L347,50.6 C365.7,49.7 383.8,48.8 395.5,57.8 C410.3,69.6 403.5,89.5 401.7,94.8 C392.3,122.2 369.2,136.6 352.3,139.6 C357.3,140.8 376.2,142.4 379,152.3 C380.8,158.8 384,162.1 376.4,187.4 C371,205.3 365.8,218.7 362.3,228.5 L317.7,238.6 C316.2,233.6 324.1,217 327.5,201.9 C331,188.7 331.2,185.7 332,179.6 C334.4,160.2 315.7,161.4 298.3,162.5 L277.2,163.8 Z" id="Shape"></path>
                <path d="M442.7,44.2 L486.8,41.4 L449.9,149.1 C443.9,166.6 438.4,185.1 467.8,185.5 L456.2,219.4 C446,220 429.8,220.4 416.9,214.8 C389.4,203.6 397.3,178.2 404.3,156 L442.7,44.2 Z M562.9,140.9 C553.2,170.1 539.4,211.7 462.9,219.4 L474.5,185.5 C505.8,180.9 512.1,163.4 518.8,143.7 L555.1,37.2 L599.2,34.4 L562.9,140.9 Z" id="Shape"></path>
                <path d="M630.7,33.4 L753,25.8 L710.9,60.9 L619.4,66.6 L630.7,33.4 Z M565,210.1 L575,180.7 L762.9,25.2 L787.7,23.6 L777.3,54.5 L591.8,208.4 L565,210.1 Z M601.4,207.8 L642.5,173.5 L730.3,167.4 L711.8,199.8 L601.4,207.8 Z" id="Shape"></path>
                <path d="M729.3,198.6 L856.4,16.3 L897.6,13.2 L905.7,187 L861.7,190.1 L862.3,151.5 L809.8,154.9 L831.1,122.1 L862.3,120 L862.3,79 C863.1,67 861.4,56.7 862.6,45.1 C856.3,56.7 852.5,67.3 845.4,78.8 L772.9,196.6 L729.3,198.6 Z" id="Path"></path>
                <path d="M927.7,10.3 L978.6,7.1 L967.7,39.8 L916.7,43 L927.7,10.3 Z M924,186.8 L984.4,6.7 L1028.4,3.9 L969.3,184 L924,186.8 Z M1025.8,36.1 L1036.7,3.4 L1087.9,0.2 L1077.1,32.9 L1025.8,36.1 Z" id="Shape"></path>
                <path d="M0.4,416.9 L62.6,238.8 L102.8,236.7 L41.6,412.8 L0.4,416.9 Z M82.1,318.6 L111.5,233.4 L123.2,237 C121.7,263.2 120.3,289.2 119.3,315.3 C118.2,342 118.1,350.4 119.3,368.5 C129.9,349.5 136.8,339.9 155.6,309.9 C171.6,284 187.6,258.1 203.9,232.2 L219.4,231.3 L191,310.4 L128.1,409.2 L78.6,411.9 L82.1,318.6 Z M164.6,407 L227,226.9 L264.9,226.4 L206.6,404.5 L164.6,407 Z" id="Shape"></path>
                <path d="M259.6,401.4 L319.3,227.3 L363.3,224.6 L303.8,398.7 L259.6,401.4 Z M361.4,252.3 L372.4,220.1 L458,214.8 L447,247 L361.4,252.3 Z M337.6,321.1 L348.5,289.4 L427.2,284.2 L416.4,315.9 L337.6,321.1 Z M311.2,398.2 L322.4,365.5 L410.4,359.7 L399.3,392.4 L311.2,398.2 Z" id="Shape"></path>
                <path d="M458.6,385.8 L518.6,209.5 L558.5,206.7 L498.6,383 L458.6,385.8 Z M505.8,382.6 L516.9,349.9 C536.5,348.9 547.5,347.8 557.6,344.2 C582.1,335.8 596.1,311.3 603.7,288.8 C609.8,270.8 613.2,247.9 594.8,240.8 C586.4,237.7 575.1,238.1 554.5,239.2 L566.6,205.1 L587,205 C624.7,203.1 642.4,212.3 650.9,230.3 C659.5,249.1 655.7,270.5 650,287.5 C641.7,312.2 625.1,337.1 600,356 C572.1,376.8 546,379.4 524.4,381.5 L505.8,382.6 Z" id="Shape"></path>
                <polygon id="Path" points="638.8 372.9 727.1 204.6 769.8 202.8 680.8 371.9"></polygon>
                <path d="M737.8,367.8 L865,186.1 L906.2,186 L919.1,356.1 L874.9,359.2 L874.6,322.6 L817.6,326 L838.9,293.2 L874.5,291.1 L874.4,250.1 C875.2,238.1 873.1,236.1 874.3,224.6 C868,236.2 866.7,238.5 859.6,249.9 L785.2,364.7 L737.8,367.8 Z" id="Path"></path>
            </g>
        </g>
    </g>
</svg>