<?xml version="1.0" encoding="UTF-8"?>
<svg width="1200px" height="441px" viewBox="0 0 1200 441" version="1.1" xmlns="http://www.w3.org/2000/svg" xmlns:xlink="http://www.w3.org/1999/xlink">
    <!-- Generator: Sketch 54.1 (76490) - https://sketchapp.com -->
    <title>cruzatmedia_logotype</title>
    <desc>Created with Sketch.</desc>
    <g id="Page-1" stroke="none" stroke-width="1" fill="none" fill-rule="evenodd">
        <g id="cruzatmedia_logotype" transform="translate(0.000000, -1.000000)" fill="#000000">
            <path d="M227,187 C222.112757,195.6949 209.84586,217.561518 183.491289,234.970097 C157.41492,252.360939 133.160368,255.655695 116,258 L128.891816,223.131721 C160.703532,217.584471 174.421654,199.440363 179.989872,187.399586 L227,187 Z M200.867198,125 C202.315249,116.506644 201.490161,99.7540307 174,99.1907332 L186.598145,65.0459176 C206.062353,64.5839928 217.215557,67.702508 223.31665,70.1187303 C253.159764,82.5008243 249.400222,109.472219 248.148078,118.97303 L200.867198,125 Z M108.428416,257.929419 C96.8468324,258.148629 83.3508773,258.230833 69.0070847,252.204654 C45.5858346,241.875416 28.8343081,214.179021 46.1175468,167.129929 C62.3446164,122.97062 106.563796,71.9030208 179,65 L166.398524,99.431846 C120.84229,106.170459 102.284186,144.573386 94.2846635,166.391148 C78.7737989,208.7093 97.9651901,222.900013 121.305595,222.70715 L108.428416,257.929419 L108.428416,257.929419 Z" id="Fill-5"></path>
            <path d="M295,174.638792 L307.292989,140.777161 L328.339572,139.442807 C344.195943,138.438328 369.948859,136.54817 379.33754,110.621599 C387.76681,87.3425236 365.395822,89.2782921 350.704303,90.2106431 L325.066099,91.8366887 L337.846094,56.6523712 L370.379551,54.5871979 C389.859789,53.609237 408.765422,52.6684004 420.769545,62.2454166 C435.949113,74.7223731 428.299887,95.8864227 426.292422,101.441283 C415.77643,130.541453 391.394848,145.785763 373.61861,148.979516 C378.809864,150.202498 398.419413,151.998255 401.131838,162.423827 C402.877551,169.292888 406.089496,172.78894 397.535086,199.699835 C391.484532,218.73613 385.661318,232.939899 381.789256,243.285919 L334.9908,254 C333.533954,248.663643 342.173877,231.084743 346.17108,215.121281 C350.10467,201.0798 350.441507,197.966659 351.391534,191.445506 C354.33964,170.838321 334.808304,172.11752 316.634744,173.268374 L295,174.638792 Z M215,249 L283.305282,60.9093088 L329,58 L260.837316,246.091753 L215,249 L215,249 Z" id="Fill-6"></path>
            <path d="M593.1813,149.411205 C582.292667,180.467874 566.631842,224.805333 486,233 L499.037539,196.878506 C532.099982,191.938277 539.093656,173.328556 546.657428,152.346163 L587.56343,38.9349579 L634,36 L593.1813,149.411205 Z M468.83149,46.9350769 L515,44 L473.729687,158.743828 C467.045765,177.336198 460.835458,197.118148 491.507475,197.510059 L478.545289,233.633017 C467.836168,234.311408 450.960652,234.680955 437.524851,228.784177 C409.020169,216.835134 417.910109,189.797495 425.846547,166.194408 L468.83149,46.9350769 L468.83149,46.9350769 Z" id="Fill-7"></path>
            <path d="M630,221 L673.81172,184.536638 L777,178 L764.773692,212.466972 L630,221 Z M592,224 L603.164404,192.599164 L803.105509,26.6527318 L829,25 L817.348418,57.995952 L620.003856,222.217098 L592,224 Z M664.650326,35.0574963 L793,27 L748.03224,63.9755757 L652,70 L664.650326,35.0574963 L664.650326,35.0574963 Z" id="Fill-8"></path>
            <path d="M809.405,207.6 L944.693847,16.9176303 L987.672089,13.6 L994.405,195.250629 L947.389092,198.531031 L947.628438,160.643671 L892.932642,164.271897 L915.868246,129.35328 L948.408915,127.135499 L949.387112,83.5021191 C950.500592,70.72302 948.981265,59.7745209 950.490186,47.4889711 C943.621992,59.8574883 939.407419,71.1431752 931.769155,83.3021466 L858.68533,204.320662 L809.405,207.6" id="Fill-9"></path>
            <path d="M1135,39 L1147.02019,4.39368937 L1200,1 L1188.01081,35.6063106 L1135,39 Z M1029,194 L1094.01503,7.92901325 L1140,5 L1076.25712,191.070987 L1029,194 Z M1034.12075,11.3763177 L1087,8 L1074.91035,42.6236823 L1022,46 L1034.12075,11.3763177 L1034.12075,11.3763177 Z" id="Fill-10"></path>
            <path d="M171,432 L239.133325,243.77346 L280,240 L214.910525,429.29055 L171,432 Z M88.1492554,338.678587 L120.870741,248.106573 L132.91442,251.931778 C130.679178,279.782757 128.55003,307.369087 126.910783,335.182866 C125.088473,363.528071 124.738989,372.519801 125.566933,391.754238 C137.100948,371.598308 144.473397,361.359853 164.749714,329.512549 C182.040854,301.999557 199.327834,274.484439 216.896689,246.952316 L233,246 L201.485066,330.031221 L133.584264,435.087785 L82,438 L88.1492554,338.678587 Z M0,442 L69.1005089,253.253343 L111,251 L42.958447,437.62792 L0,442 L0,442 Z" id="Fill-11"></path>
            <path d="M324,423 L336.444134,388.185643 L428,382 L415.607816,416.814357 L324,423 Z M354,341 L366.070783,307.533241 L448,302 L435.974932,335.466759 L354,341 Z M380,269 L392.22144,234.655423 L481,229 L468.82928,263.34351 L380,269 Z M271,427 L337.290736,241.911119 L383,239 L316.847346,424.086755 L271,427 L271,427 Z" id="Fill-12"></path>
            <path d="M526,406 L538.394668,371.289184 C558.874179,370.254372 570.365309,369.010261 581.061534,365.225867 C606.883934,356.342848 622.118743,330.255817 630.609916,306.4084 C637.40369,287.329191 641.5537,262.979242 622.493737,255.379644 C613.789475,252.045722 602.025717,252.530193 580.428535,253.638313 L593.926251,217.372092 L615.188132,217.252037 C654.597036,215.274845 672.889252,224.995063 681.33342,244.145455 C689.797435,264.071425 685.364351,286.886155 678.962284,304.905054 C669.641736,331.137638 651.725559,357.653892 625.045581,377.730728 C595.375047,399.808128 568.035955,402.57046 545.427645,404.77395 L526,406 Z M477,410 L544.19072,222.922897 L586,220 L518.939012,407.076042 L477,410 L477,410 Z" id="Fill-13"></path>
            <polyline id="Fill-14" points="684.405 397.6 764.655631 210.544748 809.405 207.6 728.172333 394.653127 684.405 397.6"></polyline>
            <path d="M766.405,390.6 L902.040931,200.911108 L948.53409,197.6 L955.405,378.269893 L909.359491,381.543833 L909.98412,342.657961 L850.592388,346.280215 L873.547475,311.41907 L910.692032,309.204939 L911.587332,265.644436 C912.680431,252.885308 910.598337,250.802857 912.087035,238.537528 C905.216124,250.885688 903.8003,253.305833 896.159015,265.443731 L815.849527,387.32606 L766.405,390.6" id="Fill-15"></path>
        </g>
    </g>
</svg>